<?xml version="1.0" encoding="utf-8"?>
<!-- Generator: Adobe Illustrator 19.2.1, SVG Export Plug-In . SVG Version: 6.00 Build 0)  -->
<svg version="1.1" id="layer" xmlns="http://www.w3.org/2000/svg" xmlns:xlink="http://www.w3.org/1999/xlink" x="0px" y="0px"
	 viewBox="0 0 652 652" style="enable-background:new 0 0 652 652;" xml:space="preserve">
<style type="text/css">
	.st0{fill:#C8102E;}
</style>
<g id="GUIDES">
	<path class="st0" d="M620.5,223.7L495.2,417.5L259.7,371L20.5,409L85,309.4c2,1.2,4.5,2,7.3,2.4l-55.9,86.9l223.7-35.5L491.5,409
		l48.6-75.1h0.4c4.1,0,7.3-1.6,9-2.9l-1.6-3.3l-2.9-2l58.8-91l-294.7,57.1c2-3.7,4.1-6.9,5.3-9L620.5,223.7z M428.7,299.2
		c3.7,0,6.5-3.7,6.5-7.3c0-3.3-2-4.5-4.5-4.5c-4.1,0-6.9,4.1-6.9,7.3C423.8,297.1,425.4,299.2,428.7,299.2z M106.2,273.5
		c0.4,0,1.2,0,1.6,0h0.4l31-47.3l157.6,60.4c0.4-0.4,0.4-0.8,0.8-1.2c2-3.7,3.7-6.1,3.7-6.1l11.8-0.8c-8.6,14.3-24.9,40.8-26.1,42.9
		c-6.9,11.8-10.2,17.6-10.2,20.8c0,1.2,0.4,2,1.6,2c3.7,0,11.4-5.7,26.9-25.3c1.2-1.6,4.9-6.9,6.5-9l11-0.4
		c-6.1,9.4-14.7,22-18.4,28.6c-1.6,2.4-2.4,4.1-2.4,4.9c0,1.2,0.8,1.6,1.6,1.6c4.1,0,12.2-6.5,23.7-22.9c2.9-4.1,4.9-7.3,7.8-11.4
		l11-0.4c-3.3,4.9-9.4,15.1-10.2,16.3c-5.3,8.6-8.2,13.9-8.2,16.3c0,1.2,0.4,2,2,2c8.2,0,19.2-14.7,22-22.4c0-5.3,0.8-9.8,2.9-12.2
		c0.8-1.2,2-2.4,4.5-2.4c1.6,0,2.9,0.8,2.9,2c0,2-2.4,7.8-6.5,14.7c1.2,2.9,3.7,4.5,6.5,5.3c4.5-8.2,14.7-21.6,28.2-21.6
		c4.9,0,6.9,1.6,6.9,5.3c0,6.9-10.6,16.7-25.3,18.8c-1.2,2.4-2.4,5.3-2.4,8.2c0,2.4,1.2,4.5,4.9,4.5c11.8,0,26.1-18,33.9-28.2
		c0.4-0.8,3.7-4.9,4.5-6.1l11-0.8c-9.4,14.7-12.2,19.6-12.2,19.6c-2.9,4.9-6.5,11-6.5,13.1c0,1.2,0.8,2,2,2
		c4.5,0,12.7-7.3,24.1-19.2c4.9-4.9,10.2-10.6,13.9-14.7c1.2-4.5,3.7-6.5,6.5-6.5c2.4,0,3.3,1.2,3.3,3.3c0,2.4-2,4.1-4.1,4.5
		c0,0.4,0,1.2,0,2c0,4.5,0.4,7.8,0.4,12.7c0,4.5-0.8,8.6-3.3,12.7c5.7-4.5,17.1-15.5,24.1-21.6c6.9-6.5,13.9-9,19.2-9
		c4.5,0,6.9,1.6,6.9,5.3c0,9-15.1,17.6-25.3,18.8c-1.2,2-2.4,5.7-2.4,8.6c0,2.4,1.6,4.1,4.1,4.1c8.2,0,16.3-8.6,22.9-16.3
		c10.2-12.7,14.7-19.6,22.4-19.6c4.1,0,6.1,2,6.1,4.9c0,3.7-1.6,6.9-5.3,13.5c11.8-15.1,17.6-18.4,21.6-18.4c2.9,0,4.9,1.6,4.9,3.7
		c-4.1,1.2-8.2,6.9-8.2,11c0,1.2,0.4,2,0.8,2.9c0.4,0.4,1.2,0.8,2.4,0.8s2.4-0.4,4.1-1.2l0.8,2c-2,1.2-4.1,1.6-6.9,1.6
		c-5.3,0-8.2-2.4-8.2-6.5c0-2.4,1.2-5.3,2.9-7.8c-6.9,6.1-21.2,24.5-26.1,32.7l-11,0.4c1.6-2.4,11-16.3,17.6-27.8
		c2-3.7,3.3-5.3,3.3-6.9c0-0.8-0.4-1.2-1.2-1.2c-3.7,0-9.4,7.3-17.1,17.1c-5.7,7.3-15.9,19.6-29.4,19.6c-6.9,0-10.2-3.7-10.2-8.6
		c0-4.5,1.6-8.6,4.1-12.2c-3.3,2.9-6.5,5.7-9.8,8.6c-6.1,5.7-14.3,12.2-25.3,12.2c-5.7,0-9-2.4-9-5.3c0-1.6,1.2-2.9,2.4-2.9
		c3.7,0,2.4,5.3,7.3,5.3c5.7,0,10.2-5.3,13.1-21.6c0.4-2,1.2-6.5,2-9.4c-8.6,9-14.7,15.1-17.1,18c-7.3,7.3-15.9,15.5-24.1,15.5
		c-4.5,0-7.3-2.4-7.3-6.1c0-2.4,1.2-5.7,4.1-11.4c-6.5,6.9-16.7,17.6-29.4,17.6c-7.3,0-10.6-3.7-10.6-9c0-2.4,0.8-5.3,2-8.2
		c-2.9-0.8-5.3-2.4-6.9-4.9c-3.3,5.3-7.3,10.6-13.1,15.5c-5.7,5.3-11,6.9-15.5,6.9c-4.5,0-7.3-2-7.3-6.1c0-2.9,1.6-6.1,2.9-9
		c-6.1,7.3-13.9,15.1-22.4,15.1c-3.7,0-6.9-1.6-6.9-6.1c0-2.9,1.6-5.7,4.1-10.2c-5.3,5.7-13.9,16.3-23.7,16.3
		c-4.5,0-6.9-2.4-6.9-6.1c0-3.3,1.6-6.5,2.9-9c-1.2,1.6-2.4,2.9-3.3,4.1c-6.9,7.8-12.7,11-18.8,11c-4.5,0-7.3-2.4-7.3-6.9
		c0-2,0.8-4.9,1.6-6.9c-6.5,6.9-13.9,13.9-22,13.9c-4.5,0-6.5-2.4-6.5-5.7c0-2,0.8-4.5,2.4-7.8l-2.4,2.4
		c-5.7,5.7-12.7,10.6-19.2,10.6c-4.1,0-6.9-2-6.9-6.1c0-2.9,2-7.8,7.3-15.1l-3.3,3.3c-16.3,15.5-32.7,24.9-50.2,24.9
		c-13.1,0-17.1-5.7-17.1-12.7c0-1.6,0.4-3.3,0.4-3.3l-2.4,2.9c-6.5,8.2-11.4,12.7-18,12.7c-5.3,0-9.8-2.4-9.8-7.3
		c0-2.9,1.6-5.7,3.7-9.4c4.5-7.3,16.7-25.3,25.7-38.4c-5.7,3.7-13.9,6.5-24.5,6.5c-15.1,0-22.4-6.1-22.4-15.1
		C76.4,281.6,87.4,273.9,106.2,273.5z M473.6,329.4c8.6-1.2,19.2-10.2,19.2-16.7c0-1.2-0.4-2-1.6-2
		C486.2,311,480.1,317.5,473.6,329.4z M373.6,329.4c8.6-1.2,19.2-9.8,19.2-16.7c0-1.2-0.8-2-2-2C385.4,311,378.9,320,373.6,329.4z
		 M132.3,321.6c8.2-11.8,16.3-24.5,21.6-32.2c-2.4-1.2-4.9-2.4-6.9-3.7c-2.9,3.7-36.7,53.9-39.2,58c-2,3.3-2.4,4.9-2.4,5.7
		c0,0.8,0.4,1.6,1.6,1.6s2.9-0.8,4.9-2.4C116.8,344.5,123.4,335.1,132.3,321.6z M148.7,310.6l2.4-4.1c7.8,0,13.9,0,18-2
		c9.8-4.5,14.7-15.5,14.7-20.8c0-3.7-1.6-6.9-6.5-6.9c-7.3,0-14.3,7.3-18.4,12.7c3.7,2,6.5,4.1,8.2,5.7l-1.2,2
		c-2.4-2-5.3-3.7-8.2-5.7c-4.9,6.1-15.5,22.9-22.9,33.5c4.9-3.3,11-4.1,15.1-4.1v2.9c-14.3,0.4-22.9,9.8-22.9,19.6
		c0,5.3,2.9,9,10.6,9c18,0,29.8-19.2,29.8-31.4c0-5.7-2-10.6-11-10.6h-4.1C150.7,310.2,149.5,310.6,148.7,310.6z M278.5,315.1
		c0-2-1.6-3.7-4.1-3.7c-4.5,0-8.6,2.9-14.7,10.2c-4.9,6.5-10.2,15.9-10.2,20c0,1.2,0.4,2.4,2.4,2.4s5.7-1.6,11-7.3
		c4.9-5.3,10.6-12.7,14.7-20C278.5,316.3,278.5,315.5,278.5,315.1z M117.2,274.3c1.6,0,3.7,0.4,5.3,0.8c6.5,1.2,11.8,2.9,16.7,4.5
		c0.8-1.2,1.6-2.4,2.4-3.7l13.1-0.4c-1.2,1.6-3.3,4.9-6.1,8.2c2.4,1.2,4.9,2.4,7.3,3.7c8.2-10.2,15.9-15.1,25.7-15.1
		c10.6,0,14.7,6.1,14.7,12.2c0,5.7-3.3,12.2-7.3,15.9c-5.3,5.3-12.7,7.8-18.4,9c3.3,1.6,9,4.5,9,13.9c0,7.8-4.5,15.1-9.4,20.8
		c9.8-5.7,23.7-18.8,29.8-26.5c1.2-1.6,4.1-5.3,5.3-7.3l11.4-0.8c0,0-14.7,22-18,27.8c-1.6,3.3-2.4,4.5-2.4,5.3
		c0,0.8,0.4,1.6,1.6,1.6c4.5,0,13.1-7.3,18.8-15.5c2.9-3.7,12.7-18.4,12.7-18.4l11.8-0.8c-9.4,14.7-12.7,19.6-12.7,19.6
		c-3.3,4.9-5.7,9.4-6.1,11.8c-0.4,0.8-0.4,1.2-0.4,1.6c0,1.2,0.4,1.6,1.6,1.6c6.9,0,19.2-15.9,22.9-20.8c6.9-9,15.9-15.1,25.3-15.1
		c4.1,0,6.9,1.6,8.2,4.5c2.4-4.1,6.9-11,10.6-17.6c0.4-0.8,0.8-1.2,1.2-1.6l-149.8-58L117.2,274.3z M81.3,293c0,2.9,0.8,5.3,2.9,7.3
		c1.2,1.2,2.9,2.4,4.9,2.9l14.7-22.4c1.6,0,3.7-0.4,5.7-0.4c1.2,0,2.4,0,3.7,0l-15.5,24.1c0.8,0,1.6,0,2.4,0c1.2,0,2.4,0,3.7,0
		c14.7-1.2,23.7-9,26.9-13.1c0,0,6.9-9.8,7.3-10.2c-6.9-2.4-16.7-5.3-28.6-5.3C91.5,276.7,81.3,283.7,81.3,293z M516.8,413.5
		c0,1.2-0.4,2.4-1.2,3.3c-0.8,0.8-2,1.2-3.3,1.2c-1.2,0-2.4-0.4-3.3-1.2c-0.8-0.8-1.2-2-1.2-3.3s0.4-2.4,1.2-3.3
		c0.8-0.8,2-1.2,3.3-1.2c1.2,0,2.4,0.4,3.3,1.2C516.4,411,516.8,411.8,516.8,413.5z M516,413.5c0-1.2-0.4-2-1.2-2.9
		c-0.8-0.8-1.6-1.2-2.9-1.2c-1.2,0-2,0.4-2.9,1.2c-0.8,0.8-1.2,1.6-1.2,2.9s0.4,2,1.2,2.9c0.8,0.8,1.6,1.2,2.9,1.2s2-0.4,2.9-1.2
		C515.6,415.5,516,414.3,516,413.5z M514.4,415.9h-1.2l-0.8-2h-1.2v2h-1.2v-5.7h2.4c0.8,0,1.2,0,1.6,0.4c0.4,0.4,0.4,0.8,0.4,1.2
		c0,0.8-0.4,1.2-1.2,1.6L514.4,415.9z M511.1,413h1.2c0.8,0,1.2-0.4,1.2-0.8c0-0.4-0.4-0.8-0.8-0.8h-1.2v1.6H511.1z"/>
</g>
</svg>
