<?xml version="1.0" encoding="UTF-8" standalone="no"?>
<!-- Created with Inkscape (http://www.inkscape.org/) -->

<svg
   xmlns:dc="http://purl.org/dc/elements/1.1/"
   xmlns:cc="http://creativecommons.org/ns#"
   xmlns:rdf="http://www.w3.org/1999/02/22-rdf-syntax-ns#"
   xmlns:svg="http://www.w3.org/2000/svg"
   xmlns="http://www.w3.org/2000/svg"
   xmlns:sodipodi="http://sodipodi.sourceforge.net/DTD/sodipodi-0.dtd"
   xmlns:inkscape="http://www.inkscape.org/namespaces/inkscape"
   width="1000"
   height="501.54599"
   id="svg2"
   version="1.1"
   inkscape:version="0.92.2 (5c3e80d, 2017-08-06)"
   sodipodi:docname="KIA_logo2.svg">
  <defs
     id="defs4" />
  <sodipodi:namedview
     id="base"
     pagecolor="#ffffff"
     bordercolor="#666666"
     borderopacity="1.0"
     inkscape:pageopacity="0.0"
     inkscape:pageshadow="2"
     inkscape:zoom="0.5"
     inkscape:cx="809.63581"
     inkscape:cy="86.470684"
     inkscape:document-units="px"
     inkscape:current-layer="layer1"
     showgrid="false"
     fit-margin-top="0"
     fit-margin-left="0"
     fit-margin-right="0"
     fit-margin-bottom="0"
     inkscape:window-width="1366"
     inkscape:window-height="705"
     inkscape:window-x="-8"
     inkscape:window-y="-8"
     inkscape:window-maximized="1" />
  <metadata
     id="metadata7">
    <rdf:RDF>
      <cc:Work
         rdf:about="">
        <dc:format>image/svg+xml</dc:format>
        <dc:type
           rdf:resource="http://purl.org/dc/dcmitype/StillImage" />
        <dc:title></dc:title>
      </cc:Work>
    </rdf:RDF>
  </metadata>
  <g
     inkscape:label="Calque 1"
     inkscape:groupmode="layer"
     id="layer1"
     transform="translate(-90.01231,-149.20715)">
    <path
       style="fill:#c41230;fill-opacity:1;stroke-width:2.99483514"
       d="M 562.4288,650.38904 C 529.26711,649.51463 492.69742,646.59638 460.32582,642.24111 322.50543,623.69913 207.01653,576.43979 142.72389,512.27488 115.45999,485.06516 98.183157,455.16963 92.356912,425.12081 90.459493,415.335 90.01231,410.54021 90.01231,399.98255 c 0,-10.55763 0.447183,-15.35248 2.344602,-25.13823 3.829876,-19.75252 12.925788,-40.11923 26.347408,-58.99438 30.3532,-42.68656 83.61377,-80.68967 153.49663,-109.52475 116.47395,-48.05946 268.98288,-67.0967 417.49207,-52.11423 174.33603,17.58801 317.75228,81.20651 374.66148,166.19738 26.0168,38.85479 32.3902,81.05641 18.4702,122.30194 -8.0387,23.8187 -23.6562,47.6215 -45.6431,69.5646 -60.91646,60.79548 -168.12227,106.64033 -296.8009,126.92228 -57.54974,9.07087 -116.87985,12.80229 -177.9519,11.19188 z m 76.03149,-32.07819 c 69.78056,-4.31975 128.70531,-14.5767 186.12738,-32.39897 45.56043,-14.14074 88.02914,-33.71696 120.63427,-55.60725 16.43119,-11.03154 27.82872,-20.34137 40.71972,-33.26088 15.30854,-15.34251 25.18704,-28.80397 33.23054,-45.28347 8.9976,-18.43434 12.4813,-32.88628 12.4813,-51.77773 0,-19.00127 -3.7116,-34.22288 -12.8252,-52.59529 -7.8807,-15.88703 -17.9338,-29.47993 -32.88664,-44.46591 -21.95981,-22.00844 -48.04644,-40.15882 -82.52379,-57.41763 -64.54151,-32.30855 -145.29406,-53.44652 -235.25352,-61.5804 -49.82663,-4.50525 -106.43548,-4.50747 -156.42323,-0.006 -126.47518,11.38873 -235.04373,48.93168 -302.21848,104.50719 -8.52081,7.04946 -23.70981,22.38454 -30.0765,30.36572 -22.7641,28.53673 -33.51083,59.32786 -31.06213,88.9982 2.66783,32.3252 17.22465,60.82941 45.58181,89.25549 21.48034,21.53256 47.01984,39.42931 80.23364,56.22359 75.63312,38.24339 168.56875,60.161 277.8738,65.53286 12.345,0.60673 74.35579,0.25546 86.38703,-0.48932 z M 283.91908,526.73844 c -0.59954,-0.24917 -1.58062,-0.99827 -2.18012,-1.66462 -1.08192,-1.20261 -1.09111,-2.07848 -1.23007,-117.90091 l -0.13986,-116.68932 -1.44348,-1.50661 c -1.36496,-1.42479 -1.7424,-1.51503 -6.94535,-1.66099 l -5.50196,-0.15454 v -7.35789 -7.35789 l 39.60477,-0.13986 39.60487,-0.13986 1.68109,1.41455 1.68115,1.41458 v 42.06998 c 0,46.22208 -0.12428,44.49268 3.19908,44.49268 2.06279,0 2.77732,-0.85988 14.26668,-17.16837 30.43618,-43.20269 47.17895,-66.6998 48.68919,-68.33145 3.72144,-4.02068 2.03454,-3.85956 40.5592,-3.87289 l 34.49787,-0.012 1.31563,1.31557 c 1.61661,1.61661 2.22567,3.82399 1.49032,5.40119 -0.46648,1.00057 -15.39232,23.16361 -67.51578,100.25297 -5.69045,8.41609 -7.27969,11.15795 -7.26597,12.53566 0.015,1.42902 3.71632,6.98372 19.51973,29.28748 69.83947,98.56598 70.06324,98.8873 70.27872,100.87925 0.16202,1.49787 -0.10812,2.32849 -1.1525,3.54271 l -1.36412,1.58613 -36.02793,0.14764 c -35.52284,0.14555 -36.06518,0.13178 -38.68036,-0.99332 -1.45881,-0.62757 -3.26063,-1.79768 -4.00406,-2.60033 -0.74341,-0.80261 -17.16619,-23.65557 -36.495,-50.78434 -19.32891,-27.12884 -35.53519,-49.64943 -36.014,-50.04582 -1.34436,-1.11289 -3.80201,-0.58166 -4.59477,0.9932 -0.53593,1.06467 -0.68761,12.17047 -0.6939,50.79354 l -0.009,49.43098 -1.31509,1.5292 -1.31515,1.52928 -30.70533,0.10841 c -16.8879,0.0596 -31.19585,-0.0955 -31.79535,-0.34443 z m 273.59127,-0.24558 c -0.9066,-0.39873 -1.94898,-1.38478 -2.31636,-2.19126 -0.5208,-1.14286 -0.66811,-27.07304 -0.66811,-117.57369 V 290.62049 l -1.59317,-1.59314 c -1.53907,-1.53904 -1.77042,-1.59316 -6.81286,-1.59316 h -5.2197 v -7.63042 -7.63039 h 40.32351 40.32357 l 1.77992,1.59041 1.77995,1.59032 v 124.29892 124.29889 l -1.51095,1.51125 -1.51093,1.5112 -31.46329,0.12189 c -25.20189,0.0973 -31.79131,-0.024 -33.11158,-0.60328 z m 117.19436,0.0958 c -1.6931,-0.97104 -2.41641,-2.18419 -2.43528,-4.08471 -0.009,-0.95997 7.72755,-24.87313 17.19347,-53.14033 9.46596,-28.2672 24.52087,-73.22335 33.4553,-99.90251 8.9345,-26.67919 18.35795,-54.74119 20.94118,-62.36005 2.58322,-7.61883 4.69677,-14.5203 4.69677,-15.33667 0,-0.81633 -0.46797,-2.06326 -1.03999,-2.77091 -0.93196,-1.15313 -1.59693,-1.315 -6.40409,-1.55923 l -5.36411,-0.27253 -0.15154,-7.49412 -0.15154,-7.49413 48.38665,0.006 c 31.76298,0 49.08673,0.19736 50.42416,0.56884 1.12067,0.31122 2.30803,1.07143 2.63872,1.6893 0.68138,1.27316 6.10731,17.31422 31.68224,93.66388 41.60569,124.20716 51.11875,152.87459 51.11875,154.04584 0,1.92029 -1.07937,3.83264 -2.53842,4.49741 -0.92268,0.42038 -10.59693,0.60486 -31.68781,0.60432 -27.82678,-5.3e-4 -30.51564,-0.0806 -32.22853,-0.95379 -1.02786,-0.52413 -2.31998,-1.56926 -2.87133,-2.32252 -0.55132,-0.75324 -4.77892,-13.13901 -9.39471,-27.52395 -43.99784,-137.11846 -42.77999,-133.37656 -43.76894,-134.4789 -1.09249,-1.2177 -1.92448,-1.2062 -3.05432,0.0419 -0.89845,0.99276 -2.59286,6.20635 -26.51222,81.57587 -6.94473,21.88293 -14.43163,45.42814 -16.63748,52.32279 -2.20584,6.89462 -5.0333,15.78527 -6.28325,19.75702 -2.45759,7.80909 -3.54397,9.6711 -6.31913,10.83064 -2.39473,1.00054 -61.96018,1.08775 -63.69434,0.0931 z"
       id="path2996"
       inkscape:connector-curvature="0" />
  </g>
</svg>
