<?xml version="1.0" encoding="UTF-8" standalone="no"?>
<!-- Created with Inkscape (http://www.inkscape.org/) -->

<svg xmlns:dc="http://purl.org/dc/elements/1.1/" xmlns:cc="http://creativecommons.org/ns#" xmlns:rdf="http://www.w3.org/1999/02/22-rdf-syntax-ns#" xmlns:svg="http://www.w3.org/2000/svg" xmlns="http://www.w3.org/2000/svg" xmlns:sodipodi="http://sodipodi.sourceforge.net/DTD/sodipodi-0.dtd" xmlns:inkscape="http://www.inkscape.org/namespaces/inkscape" id="svg2985" version="1.1" inkscape:version="0.48.5 r10040" width="324" height="293" sodipodi:docname="Pepsi1969.png">
  <metadata id="metadata2991">
    <rdf:RDF>
      <cc:Work rdf:about="">
        <dc:format>image/svg+xml</dc:format>
        <dc:type rdf:resource="http://purl.org/dc/dcmitype/StillImage" />
        <dc:title></dc:title>
      </cc:Work>
    </rdf:RDF>
  </metadata>
  <defs id="defs2989" />
  <sodipodi:namedview pagecolor="#ffffff" bordercolor="#666666" borderopacity="1" objecttolerance="10" gridtolerance="10" guidetolerance="10" inkscape:pageopacity="0" inkscape:pageshadow="2" inkscape:window-width="1366" inkscape:window-height="706" id="namedview2987" showgrid="false" inkscape:zoom="1.7716337" inkscape:cx="159.52173" inkscape:cy="157.2097" inkscape:window-x="-8" inkscape:window-y="-8" inkscape:window-maximized="1" inkscape:current-layer="svg2985" />
  <g id="g3044">
    <path sodipodi:nodetypes="cssscsssc" inkscape:connector-curvature="0" id="path2995" d="M 47.384048,73.476802 C 47.240146,68.961416 70.538412,43.00738 88.816476,32.50219 111.71893,19.339164 133.77847,13.961568 157.48901,13.960606 c 27.11746,-0.0011 56.12195,13.056149 66.15454,17.854859 18.7525,8.969546 49.95114,44.340291 49.44422,51.5044 0,0 -40.45062,-9.145385 -60.20292,-9.614155 -26.45456,-0.627831 -51.90846,7.148145 -78.51559,10.529789 C 114.64438,86.742441 98.709515,92.088302 69.588167,83.319865 60.22876,80.501748 46.161938,73.965646 47.384048,73.476802 z" style="fill:#df0100;stroke:none;fill-opacity:1" />
    <path style="fill:#010066;stroke:none;fill-opacity:1" d="m 265.24986,217.69529 c 0.14391,4.51539 -23.15436,30.46943 -41.43242,40.97462 -22.90246,13.16302 -44.962,18.54062 -68.67254,18.54158 -27.11746,10e-4 -56.12195,-13.05615 -66.154535,-17.85486 -18.7525,-8.96954 -49.95114,-44.34029 -49.44422,-51.5044 0,0 40.494123,11.00572 60.202915,9.61416 27.74806,-1.95918 52.20814,-7.74751 78.51559,-10.52979 19.77328,-2.09123 35.65975,-7.85281 64.78109,0.91563 9.35941,2.81812 23.42623,9.35422 22.20412,9.84306 z" id="path2997" inkscape:connector-curvature="0" sodipodi:nodetypes="cssscsssc" />
    <path sodipodi:nodetypes="cccssccccccccccccccccccc" inkscape:connector-curvature="0" id="path3019" style="font-size:30px;font-style:normal;font-weight:bold;text-align:start;text-anchor:start;fill:#010066;font-family:Helvetica95-Black;fill-opacity:1" d="m 18.302736,177.96775 16.402861,0 0,-19.76827 18.380151,0 c 11.61506,0 14.2244,-0.73457 20.158217,-5.90283 4.622806,-4.02639 5.818038,-9.71606 5.818103,-17.34262 -6.5e-5,-2.50055 -0.448811,-5.04768 -1.346241,-7.64142 -0.897553,-2.59363 -1.379897,-5.00392 -3.296564,-7.23086 -1.916783,-2.22683 -4.452599,-4.02639 -7.607452,-5.39871 -3.154955,-1.37219 -10.102859,-2.05831 -14.370388,-2.05838 l -34.138687,0 z m 16.402861,-48.59676 16.690452,0 c 1.545802,5e-5 2.844382,0.061 3.895741,0.18294 1.051282,0.122 2.025686,0.38129 2.923221,0.77783 0.897449,0.39664 1.593453,1.03762 2.088013,1.92292 0.494474,0.8854 0.741733,2.0291 0.741776,3.4311 -4.3e-5,1.58642 -0.294028,2.85254 -0.881922,3.79837 -0.587988,0.94591 -1.392049,1.64739 -2.412186,2.10446 -1.020219,0.45715 -2.133352,0.74714 -3.339407,0.87 -1.206132,0.12291 -2.613238,0.18438 -4.221331,0.18432 l -15.484357,0 z" />
    <path sodipodi:nodetypes="ccccccccccccc" inkscape:connector-curvature="0" id="path3021" style="font-size:30px;font-style:normal;font-weight:bold;text-align:start;text-anchor:start;fill:#010066;font-family:Helvetica95-Black;fill-opacity:1" d="m 83.53373,177.96775 57.38964,0 0,-16.74913 -36.97947,0 0,-9.0689 28.79898,0 0,-14.63179 -28.79898,0 0,-9.53408 37.34739,0 0,-15.35919 -57.75756,0 z" />
    <path sodipodi:nodetypes="cssssscccccccccccccccccccccccsccccccccccssscccc" inkscape:connector-curvature="0" id="path3025" style="font-size:30px;font-style:normal;font-weight:bold;text-align:start;text-anchor:start;fill:#010066;font-family:Helvetica95-Black;fill-opacity:1" d="m 209.24418,156.00425 c 0.0672,4.88017 1.25252,8.90662 3.55589,12.07936 2.30334,3.17276 5.17412,5.58258 8.61236,7.22947 3.4382,1.64689 6.84331,2.76033 10.21534,3.34033 3.37196,0.57999 6.39251,0.86999 9.06162,0.86999 4.20732,0 8.26392,-0.39659 12.16977,-1.18978 3.90577,-0.79319 7.42752,-2.07421 10.56527,-3.84305 3.13765,-1.76885 5.64117,-4.10233 7.5106,-7.00045 1.86932,-2.8981 2.804,-6.39157 2.80407,-10.48042 -7e-5,-2.86737 0.16818,-5.36889 -0.93402,-7.50457 -1.10233,-2.13562 -2.58814,-5.50295 -4.45746,-6.93668 -1.86943,-1.43366 -3.9558,-2.60809 -6.25909,-3.52327 -2.30341,-0.9151 -4.89047,-1.73855 -7.76121,-2.47033 -1.20011,-0.30532 -5.09399,-0.0741 -8.16645,-0.74447 -4.72977,-0.0913 -12.91958,-0.747 -15.18929,-1.63147 -2.26976,-0.88438 -3.1523,-2.62985 -3.28675,-4.27772 -3e-5,-1.64776 1.69681,-3.19139 3.33293,-3.83195 1.63605,-0.64046 7.47003,-1.18041 9.47289,-1.18046 1.20207,5e-5 6.10547,0.51686 7.24037,0.79144 1.13482,0.27468 2.13624,0.68665 3.00424,1.23587 1.9706,1.59616 3.98001,3.32902 3.72242,5.45684 l 17.8599,0 c -0.13454,-3.84487 -1.0193,-7.14004 -2.6543,-9.88553 -1.63513,-2.74538 -3.82133,-4.9569 -6.55861,-6.63458 -2.73737,-1.67755 -5.84197,-2.89758 -9.31376,-3.66012 -3.47188,-0.76239 -8.8269,-1.14363 -12.89975,-1.14369 -3.80602,6e-5 -7.42812,0.42691 -10.86632,1.28055 -3.43823,0.85376 -8.66737,2.1655 -11.37107,3.93522 -2.70372,1.76984 -4.84,4.0428 -6.40885,6.8189 -1.56884,2.77622 -2.35327,7.25876 -2.35327,10.85785 0,2.98847 0.65097,5.53514 1.95292,7.64003 1.30193,2.10496 3.02103,3.82865 5.15733,5.17108 2.13627,1.3425 4.35609,2.39496 6.65946,3.1574 2.30332,0.76249 4.38344,1.23158 8.25465,2.27051 l 4.36946,0.70533 c 3.41723,0.4552 5.95752,0.26125 7.86054,0.80957 1.90295,0.54836 3.40506,1.08181 4.50636,1.60034 1.10121,0.51857 1.88563,1.06784 2.35327,1.64782 0.46755,0.58001 0.70135,1.29733 0.7014,2.15194 -5e-5,1.15815 -0.28375,2.13381 -0.85116,2.92698 -0.56747,0.7932 -1.31879,1.40346 -2.25394,1.83076 -0.93523,0.42733 -1.92034,0.73268 -2.95534,0.91607 -1.03507,0.1834 -4.84897,0.2751 -5.84933,0.2751 -2.46944,2e-5 -4.65564,-0.35096 -6.5586,-1.05293 -1.90302,-0.70193 -3.22227,-1.93733 -3.95778,-3.7062 -0.53384,-1.28099 -0.80074,-2.71469 -0.80071,-4.30109 z" />
    <path sodipodi:nodetypes="ccccc" inkscape:connector-curvature="0" id="path3027" style="font-size:30px;font-style:normal;font-weight:bold;text-align:start;text-anchor:start;fill:#010066;font-family:Helvetica95-Black;fill-opacity:1" d="m 277.94213,177.96775 18.252,0 0,-65.34309 -18.252,0 z" />
    <path d="m 144.99526,177.96775 17.63588,0 0,-19.76827 18.38015,0 c 11.61506,0 14.2244,-0.73457 20.15822,-5.90283 4.6228,-4.02639 5.81804,-9.71606 5.8181,-17.34262 -6e-5,-2.50055 -0.44881,-5.04768 -1.34624,-7.64142 -0.89755,-2.59363 -1.3799,-5.00392 -3.29656,-7.23086 -1.91679,-2.22683 -4.4526,-4.02639 -7.60746,-5.39871 -3.15495,-1.37219 -10.10286,-2.05831 -14.37038,-2.05838 l -35.37171,0 z m 17.63588,-48.59676 16.49089,0 c 1.5458,5e-5 2.84438,0.061 3.89574,0.18294 1.05128,0.122 2.02569,0.38129 2.92322,0.77783 0.89745,0.39664 1.59345,1.03762 2.08801,1.92292 0.49448,0.8854 0.74174,2.0291 0.74178,3.4311 -4e-5,1.58642 -0.29403,2.85254 -0.88192,3.79837 -0.58799,0.94591 -1.39205,1.64739 -2.41219,2.10446 -1.02022,0.45715 -2.13335,0.74714 -3.33941,0.87 -1.20613,0.12291 -2.61323,0.18438 -4.22133,0.18432 l -15.28479,0 z" style="font-size:30px;font-style:normal;font-weight:bold;text-align:start;text-anchor:start;fill:#010066;font-family:Helvetica95-Black;fill-opacity:1" id="path3042" inkscape:connector-curvature="0" sodipodi:nodetypes="cccssccccccccccccccccccc" />
  </g>
</svg>
