<?xml version="1.0" standalone="no"?>
<!DOCTYPE svg PUBLIC "-//W3C//DTD SVG 20010904//EN"
 "http://www.w3.org/TR/2001/REC-SVG-20010904/DTD/svg10.dtd">
<svg version="1.0" xmlns="http://www.w3.org/2000/svg"
 width="432.000000pt" height="1284.000000pt" viewBox="0 0 432.000000 1284.000000"
 preserveAspectRatio="xMidYMid meet">
<metadata>
Created by potrace 1.16, written by Peter Selinger 2001-2019
</metadata>
<g transform="translate(0.000000,1284.000000) scale(0.100000,-0.100000)"
fill="#000000" stroke="none">
<path d="M352 12772 c5 -31 188 -1183 407 -2560 l397 -2503 -498 -2521 c-273
-1387 -496 -2523 -495 -2524 24 -21 4121 -2664 4129 -2664 6 0 8 16 4 42 -4
24 -287 1494 -630 3268 l-623 3225 -87 54 c-48 29 -90 51 -93 47 -3 -3 267
-1417 601 -3141 334 -1724 606 -3139 604 -3144 -2 -5 -392 243 -868 551 -476
307 -912 589 -969 625 l-103 66 -32 -35 c-17 -19 -43 -40 -59 -46 -25 -11 -29
-9 -47 20 -17 29 -34 88 -42 153 -2 13 -237 170 -800 535 -439 284 -800 518
-803 521 -3 3 216 1120 485 2483 l491 2477 -380 2392 c-209 1315 -378 2393
-376 2395 1 2 369 -233 816 -521 448 -288 864 -555 924 -594 61 -39 113 -69
118 -66 4 2 7 13 7 23 0 11 9 43 20 72 11 28 19 53 17 54 -4 3 -2102 1360
-2113 1367 -7 4 -8 -11 -2 -51z"/>
<path d="M2775 11611 c-129 -36 -205 -130 -240 -298 -17 -81 -19 -232 -4 -340
13 -93 59 -241 94 -302 30 -51 28 -59 -7 -32 -76 60 -794 533 -853 562 -57 28
-81 34 -133 34 -60 0 -65 -2 -97 -37 -59 -64 -72 -172 -33 -275 17 -47 39 -76
112 -149 50 -50 114 -109 141 -132 l50 -41 -70 -1 c-87 -1 -138 -22 -188 -81
-58 -67 -72 -128 -71 -299 1 -122 5 -161 27 -243 68 -254 212 -497 457 -766
l104 -114 -63 42 c-139 94 -247 127 -311 94 -52 -27 -72 -73 -67 -155 7 -108
73 -227 211 -376 l58 -62 -48 20 c-153 66 -243 13 -231 -136 8 -111 71 -217
215 -366 l74 -77 -47 15 c-63 18 -138 18 -176 -2 -37 -19 -68 -83 -69 -140 0
-60 34 -161 74 -220 39 -57 128 -152 196 -207 l45 -37 -62 25 c-71 28 -149 33
-192 10 -32 -16 -61 -77 -61 -129 0 -56 37 -159 81 -222 22 -32 89 -108 147
-167 l107 -109 -73 36 c-91 45 -145 54 -192 29 -96 -50 -91 -204 13 -360 25
-38 87 -109 138 -158 50 -48 83 -85 73 -81 -73 30 -133 46 -172 46 -124 0
-160 -172 -71 -346 58 -115 224 -284 380 -387 l45 -31 -37 -39 c-21 -21 -44
-54 -51 -73 -14 -39 -13 -39 -64 -20 -110 38 -206 28 -260 -29 -42 -45 -58
-107 -52 -208 10 -159 86 -300 260 -482 55 -58 97 -105 94 -105 -4 0 -29 11
-55 25 -85 42 -164 60 -210 46 -63 -18 -86 -59 -86 -151 0 -65 5 -85 36 -150
61 -128 160 -239 487 -549 101 -95 182 -175 180 -176 -6 -5 -315 62 -388 84
-181 55 -270 133 -270 236 0 37 22 66 84 108 66 45 -2 125 -75 87 -57 -31 -83
-170 -55 -299 31 -145 90 -243 276 -456 67 -77 128 -147 136 -155 7 -9 -19 0
-58 19 -55 26 -88 35 -144 39 -90 6 -115 0 -159 -39 -80 -70 -86 -228 -15
-386 64 -141 161 -245 430 -463 210 -170 273 -231 296 -287 14 -31 14 -38 1
-50 -13 -13 -20 -13 -59 5 -63 27 -322 184 -525 318 l-173 113 0 -88 c0 -130
4 -142 58 -176 139 -88 505 -380 602 -480 l45 -46 -54 28 c-40 20 -69 27 -112
28 -50 0 -61 -4 -88 -29 -49 -47 -65 -149 -38 -240 13 -42 24 -51 46 -37 12 8
13 14 3 36 -20 43 -15 92 10 109 64 45 222 -24 273 -118 55 -102 129 43 76
147 -44 87 -151 200 -316 335 -39 32 -39 31 55 -13 190 -90 280 -65 280 77 0
114 -65 196 -305 388 -318 253 -454 422 -458 564 -1 46 3 60 21 79 31 30 126
29 199 -2 48 -21 52 -26 58 -64 29 -175 167 -397 289 -468 55 -31 128 -39 168
-18 46 25 61 133 33 242 -35 134 -88 207 -385 532 -106 116 -205 227 -222 247
l-29 37 54 -24 c88 -41 153 -48 355 -40 160 6 182 5 182 -9 0 -27 44 -66 81
-72 47 -8 79 20 79 70 0 46 -39 91 -109 124 -44 21 -111 82 -351 322 -330 328
-393 406 -394 486 -2 89 34 83 245 -38 102 -58 366 -220 466 -286 l25 -16 -6
55 c-3 30 -8 83 -11 119 l-6 65 -62 45 c-203 146 -425 341 -519 457 -178 217
-200 423 -44 423 33 0 144 -34 158 -48 4 -4 16 -41 27 -83 40 -155 102 -271
196 -363 92 -91 204 -122 262 -72 26 22 28 31 32 110 3 95 -10 150 -63 251
-42 82 -197 237 -309 310 l-87 57 25 46 c14 26 39 57 56 68 l31 22 116 -59
c196 -99 242 -101 242 -12 0 79 -73 126 -227 144 -111 14 -164 36 -281 119
-179 126 -299 290 -278 376 8 32 57 32 130 0 53 -24 318 -180 503 -298 51 -32
95 -58 98 -58 7 0 4 180 -3 207 -5 13 -66 63 -162 129 -367 252 -580 463 -568
562 8 68 74 36 531 -264 l217 -143 -1 72 c0 40 -4 93 -7 119 -7 45 -10 48
-107 118 -152 110 -371 298 -476 408 -102 107 -152 186 -147 230 3 25 6 27 53
26 82 0 202 -66 915 -502 234 -142 427 -255 429 -250 2 6 0 61 -4 124 l-7 115
-79 46 -78 45 23 62 c13 33 303 791 645 1682 341 892 621 1625 621 1630 0 5
-228 158 -505 339 l-505 330 0 66 c0 76 -23 220 -46 294 -40 125 -122 233
-208 275 -49 23 -162 35 -211 21z m151 -100 c95 -43 166 -136 213 -278 75
-224 66 -494 -25 -809 -14 -49 -29 -93 -33 -97 -8 -8 -206 128 -265 182 -42
39 -111 139 -151 219 -53 108 -76 201 -82 336 l-6 118 54 -34 c30 -19 143 -92
251 -161 108 -70 199 -127 202 -127 3 0 6 42 6 93 l0 94 -237 155 c-131 85
-239 162 -241 170 -5 26 62 111 108 135 55 29 147 31 206 4z m-1222 -528 c60
-30 1101 -729 1250 -838 l27 -21 -38 -72 c-25 -47 -43 -70 -52 -67 -21 8 -916
611 -1021 688 -183 135 -268 222 -286 292 -5 21 -2 31 12 42 20 15 38 11 108
-24z m1941 -487 c257 -165 409 -269 407 -277 -2 -8 -281 -730 -619 -1605
l-616 -1591 -166 100 c-91 55 -183 111 -204 124 l-39 24 35 34 c34 33 57 94
57 152 -1 56 -30 165 -60 226 -66 129 -134 204 -320 351 -163 129 -328 295
-363 366 -63 125 -17 149 138 72 39 -19 297 -183 553 -350 l23 -15 -6 104 c-3
57 -8 114 -11 126 -3 14 -51 54 -147 119 -231 158 -359 258 -438 342 -81 86
-139 182 -139 230 0 81 67 48 528 -255 112 -73 205 -133 208 -133 6 0 -8 201
-15 221 -3 9 -42 44 -86 76 -160 120 -340 298 -487 482 -60 75 -138 185 -138
195 0 3 21 -10 46 -29 146 -112 276 -160 413 -153 114 5 177 38 236 122 l39
57 26 -83 c41 -129 94 -223 175 -304 172 -173 411 -204 524 -67 47 56 66 123
65 228 -1 174 -54 286 -211 445 l-104 105 38 77 38 77 89 -66 89 -66 -6 99
c-4 54 -7 118 -7 141 0 39 -4 45 -39 67 l-39 25 30 98 c36 120 78 306 78 345
0 15 3 28 8 28 4 0 192 -119 417 -264z m-1742 21 c78 -36 165 -124 204 -207
30 -63 45 -118 58 -207 6 -40 9 -43 37 -43 l30 0 -7 53 c-10 89 -26 150 -54
210 -15 31 -26 57 -25 57 4 0 666 -447 692 -468 l23 -18 -62 -88 c-47 -68 -58
-91 -47 -97 26 -17 37 -8 94 75 l57 85 45 -37 c70 -58 158 -160 188 -221 25
-47 29 -68 29 -134 0 -74 -2 -80 -28 -103 -67 -57 -159 -52 -299 18 -146 73
-257 208 -287 346 -6 29 -11 107 -11 172 l0 120 -40 25 c-22 14 -41 25 -43 25
-3 0 -5 -55 -6 -121 -2 -164 -23 -212 -106 -250 -57 -26 -182 -25 -271 2 -206
63 -392 215 -471 386 -75 162 -64 359 24 421 43 30 53 32 138 29 61 -3 94 -9
138 -30z m-15 -2617 c146 -56 362 -204 453 -309 85 -99 114 -208 67 -258 -21
-23 -82 -33 -90 -15 -1 4 -32 26 -68 47 -36 22 -118 79 -183 128 -250 188
-382 361 -321 421 22 23 55 20 142 -14z m364 -2762 c179 -132 253 -278 141
-278 -103 0 -263 156 -323 316 -35 95 -30 100 48 53 37 -23 97 -64 134 -91z
m-128 -2055 c154 -92 270 -196 306 -276 25 -55 25 -76 -2 -86 -84 -31 -255
104 -332 261 -36 73 -55 138 -41 138 4 0 35 -16 69 -37z"/>
<path d="M2733 4175 c-30 -21 -44 -75 -32 -119 25 -89 178 -139 224 -73 23 32
19 98 -7 137 -43 62 -136 90 -185 55z"/>
</g>
</svg>
